<svg xmlns="http://www.w3.org/2000/svg" viewBox="0 0 136.49 158"><g id="Layer_2" data-name="Layer 2"><g id="Layer_1-2" data-name="Layer 1"><path d="M51.39,106.31H43.21a.87.87,0,0,1-.84-1l8-42.85a.86.86,0,0,1,.84-.71h2.18a.86.86,0,0,1,.78.5L67,88.14a.84.84,0,0,0,1.54,0L81.21,62.22a.84.84,0,0,1,.77-.5h2.19a.86.86,0,0,1,.84.69l8.08,42.85a.87.87,0,0,1-.84,1H84.08a.85.85,0,0,1-.85-.78L81.47,85a.85.85,0,0,0-1.61-.31L69.37,105.39a.86.86,0,0,1-.76.46H66.76a.84.84,0,0,1-.76-.48L55.49,84.89a.86.86,0,0,0-1.62.32l-1.63,20.3A.87.87,0,0,1,51.39,106.31Z"/><path d="M135,75.75a67.62,67.62,0,0,0-21.94-37.33l14.79-24.14h0a9.61,9.61,0,0,0-16.38-10h0L96.93,27.93A68.15,68.15,0,0,0,1.46,103.77,68.23,68.23,0,1,0,135,75.75ZM68.44,142.7a53,53,0,1,1,53-53A53,53,0,0,1,68.44,142.7Z"/><rect x="46.1" y="113" width="44" height="3"/></g></g></svg>